<svg width="45" height="42" viewBox="0 0 45 42" fill="none" xmlns="http://www.w3.org/2000/svg">
<path d="M0 1.46875C0 1.07921 0.154743 0.705631 0.430187 0.430187C0.705631 0.154743 1.07921 0 1.46875 0H5.875C6.20262 9.05087e-05 6.52081 0.109718 6.77896 0.311448C7.03711 0.513178 7.2204 0.795428 7.29969 1.11331L8.48938 5.875H42.5938C42.8169 5.87506 43.037 5.92595 43.2375 6.02379C43.438 6.12164 43.6136 6.26388 43.7509 6.4397C43.8882 6.61553 43.9837 6.82034 44.03 7.03857C44.0764 7.2568 44.0724 7.48272 44.0184 7.69919L39.6122 25.3242C39.5329 25.6421 39.3496 25.9243 39.0915 26.1261C38.8333 26.3278 38.5151 26.4374 38.1875 26.4375H11.75C11.4224 26.4374 11.1042 26.3278 10.846 26.1261C10.5879 25.9243 10.4046 25.6421 10.3253 25.3242L4.72938 2.9375H1.46875C1.07921 2.9375 0.705631 2.78276 0.430187 2.50731C0.154743 2.23187 0 1.85829 0 1.46875ZM9.22375 8.8125L10.6925 14.6875H14.6875V8.8125H9.22375ZM17.625 8.8125V14.6875H23.5V8.8125H17.625ZM26.4375 8.8125V14.6875H32.3125V8.8125H26.4375ZM35.25 8.8125V14.6875H39.245L40.7138 8.8125H35.25ZM38.5106 17.625H35.25V23.5H37.0419L38.5106 17.625ZM32.3125 17.625H26.4375V23.5H32.3125V17.625ZM23.5 17.625H17.625V23.5H23.5V17.625ZM14.6875 17.625H11.4269L12.8956 23.5H14.6875V17.625ZM14.6875 32.3125C13.9084 32.3125 13.1613 32.622 12.6104 33.1729C12.0595 33.7238 11.75 34.4709 11.75 35.25C11.75 36.0291 12.0595 36.7762 12.6104 37.3271C13.1613 37.878 13.9084 38.1875 14.6875 38.1875C15.4666 38.1875 16.2137 37.878 16.7646 37.3271C17.3155 36.7762 17.625 36.0291 17.625 35.25C17.625 34.4709 17.3155 33.7238 16.7646 33.1729C16.2137 32.622 15.4666 32.3125 14.6875 32.3125ZM8.8125 35.25C8.8125 33.6919 9.43147 32.1975 10.5332 31.0957C11.635 29.994 13.1294 29.375 14.6875 29.375C16.2456 29.375 17.74 29.994 18.8418 31.0957C19.9435 32.1975 20.5625 33.6919 20.5625 35.25C20.5625 36.8081 19.9435 38.3025 18.8418 39.4043C17.74 40.506 16.2456 41.125 14.6875 41.125C13.1294 41.125 11.635 40.506 10.5332 39.4043C9.43147 38.3025 8.8125 36.8081 8.8125 35.25ZM35.25 32.3125C34.4709 32.3125 33.7238 32.622 33.1729 33.1729C32.622 33.7238 32.3125 34.4709 32.3125 35.25C32.3125 36.0291 32.622 36.7762 33.1729 37.3271C33.7238 37.878 34.4709 38.1875 35.25 38.1875C36.0291 38.1875 36.7762 37.878 37.3271 37.3271C37.878 36.7762 38.1875 36.0291 38.1875 35.25C38.1875 34.4709 37.878 33.7238 37.3271 33.1729C36.7762 32.622 36.0291 32.3125 35.25 32.3125ZM29.375 35.25C29.375 33.6919 29.994 32.1975 31.0958 31.0957C32.1975 29.994 33.6919 29.375 35.25 29.375C36.8082 29.375 38.3025 29.994 39.4043 31.0957C40.506 32.1975 41.125 33.6919 41.125 35.25C41.125 36.8081 40.506 38.3025 39.4043 39.4043C38.3025 40.506 36.8082 41.125 35.25 41.125C33.6919 41.125 32.1975 40.506 31.0958 39.4043C29.994 38.3025 29.375 36.8081 29.375 35.25Z" fill="#042F59"/>
</svg>
