<svg width="24" height="24" viewBox="0 0 24 24" fill="none" xmlns="http://www.w3.org/2000/svg">
<g clip-path="url(#clip0_28_233)">
<rect width="24" height="24" fill="white"/>
<path d="M15.0795 10H14.0227C13.9602 9.69602 13.8509 9.42898 13.6946 9.19886C13.5412 8.96875 13.3537 8.77557 13.1321 8.61932C12.9134 8.46023 12.6705 8.34091 12.4034 8.26136C12.1364 8.18182 11.858 8.14205 11.5682 8.14205C11.0398 8.14205 10.5611 8.27557 10.1321 8.54261C9.70597 8.80966 9.36648 9.20312 9.11364 9.72301C8.86364 10.2429 8.73864 10.8807 8.73864 11.6364C8.73864 12.392 8.86364 13.0298 9.11364 13.5497C9.36648 14.0696 9.70597 14.4631 10.1321 14.7301C10.5611 14.9972 11.0398 15.1307 11.5682 15.1307C11.858 15.1307 12.1364 15.0909 12.4034 15.0114C12.6705 14.9318 12.9134 14.8139 13.1321 14.6577C13.3537 14.4986 13.5412 14.304 13.6946 14.0739C13.8509 13.8409 13.9602 13.5739 14.0227 13.2727H15.0795C15 13.7187 14.8551 14.1179 14.6449 14.4702C14.4347 14.8224 14.1733 15.1222 13.8608 15.3693C13.5483 15.6136 13.1974 15.7997 12.8082 15.9276C12.4219 16.0554 12.0085 16.1193 11.5682 16.1193C10.8239 16.1193 10.1619 15.9375 9.58239 15.5739C9.00284 15.2102 8.54688 14.6932 8.21449 14.0227C7.8821 13.3523 7.71591 12.5568 7.71591 11.6364C7.71591 10.7159 7.8821 9.92045 8.21449 9.25C8.54688 8.57955 9.00284 8.0625 9.58239 7.69886C10.1619 7.33523 10.8239 7.15341 11.5682 7.15341C12.0085 7.15341 12.4219 7.21733 12.8082 7.34517C13.1974 7.47301 13.5483 7.66051 13.8608 7.90767C14.1733 8.15199 14.4347 8.45028 14.6449 8.80256C14.8551 9.15199 15 9.55114 15.0795 10Z" fill="#042F59"/>
<g filter="url(#filter0_d_28_233)">
<path d="M16.1477 13.3011C16.0966 12.8693 15.8892 12.5341 15.5256 12.2955C15.1619 12.0568 14.7159 11.9375 14.1875 11.9375C13.8011 11.9375 13.4631 12 13.1733 12.125C12.8864 12.25 12.6619 12.4219 12.5 12.6406C12.3409 12.8594 12.2614 13.108 12.2614 13.3864C12.2614 13.6193 12.3168 13.8196 12.4276 13.9872C12.5412 14.152 12.6861 14.2898 12.8622 14.4006C13.0384 14.5085 13.223 14.598 13.4162 14.669C13.6094 14.7372 13.7869 14.7926 13.9489 14.8352L14.8352 15.0739C15.0625 15.1335 15.3153 15.2159 15.5938 15.321C15.875 15.4261 16.1435 15.5696 16.3991 15.7514C16.6577 15.9304 16.8707 16.1605 17.0384 16.4418C17.206 16.723 17.2898 17.0682 17.2898 17.4773C17.2898 17.9489 17.1662 18.375 16.919 18.7557C16.6747 19.1364 16.3168 19.4389 15.8452 19.6634C15.3764 19.8878 14.8068 20 14.1364 20C13.5114 20 12.9702 19.8991 12.5128 19.6974C12.0582 19.4957 11.7003 19.2145 11.4389 18.8537C11.1804 18.4929 11.0341 18.0739 11 17.5966H12.0909C12.1193 17.9261 12.2301 18.1989 12.4233 18.4148C12.6193 18.6278 12.8665 18.7869 13.1648 18.892C13.4659 18.9943 13.7898 19.0455 14.1364 19.0455C14.5398 19.0455 14.902 18.9801 15.223 18.8494C15.544 18.7159 15.7983 18.5313 15.9858 18.2955C16.1733 18.0568 16.267 17.7784 16.267 17.4602C16.267 17.1705 16.1861 16.9347 16.0241 16.7528C15.8622 16.571 15.6491 16.4233 15.3849 16.3097C15.1207 16.196 14.8352 16.0966 14.5284 16.0114L13.4545 15.7045C12.7727 15.5085 12.233 15.2287 11.8352 14.8651C11.4375 14.5014 11.2386 14.0256 11.2386 13.4375C11.2386 12.9489 11.3707 12.5227 11.6349 12.1591C11.902 11.7926 12.2599 11.5085 12.7088 11.3068C13.1605 11.1023 13.6648 11 14.2216 11C14.7841 11 15.2841 11.1009 15.7216 11.3026C16.1591 11.5014 16.5057 11.7741 16.7614 12.1207C17.0199 12.4673 17.1563 12.8608 17.1705 13.3011H16.1477Z" fill="#1D83A4"/>
</g>
</g>
<defs>
<filter id="filter0_d_28_233" x="11" y="11" width="34.2898" height="45" filterUnits="userSpaceOnUse" color-interpolation-filters="sRGB">
<feFlood flood-opacity="0" result="BackgroundImageFix"/>
<feColorMatrix in="SourceAlpha" type="matrix" values="0 0 0 0 0 0 0 0 0 0 0 0 0 0 0 0 0 0 127 0" result="hardAlpha"/>
<feOffset dx="24" dy="32"/>
<feGaussianBlur stdDeviation="2"/>
<feComposite in2="hardAlpha" operator="out"/>
<feColorMatrix type="matrix" values="0 0 0 0 0 0 0 0 0 0 0 0 0 0 0 0 0 0 0.25 0"/>
<feBlend mode="normal" in2="BackgroundImageFix" result="effect1_dropShadow_28_233"/>
<feBlend mode="normal" in="SourceGraphic" in2="effect1_dropShadow_28_233" result="shape"/>
</filter>
<clipPath id="clip0_28_233">
<rect width="24" height="24" fill="white"/>
</clipPath>
</defs>
</svg>
